Coordinates
version=1
nRows=5
nColumns=40
inDegrees=yes

Units are S.I. units (second, meters, Newtons, ...)
Angles are in degrees.

endheader
time	pelvis_tilt	pelvis_list	pelvis_rotation	pelvis_tx	pelvis_ty	pelvis_tz	hip_flexion_r	hip_adduction_r	hip_rotation_r	knee_angle_r	knee_angle_r_beta	ankle_angle_r	subtalar_angle_r	mtp_angle_r	hip_flexion_l	hip_adduction_l	hip_rotation_l	knee_angle_l	knee_angle_l_beta	ankle_angle_l	subtalar_angle_l	mtp_angle_l	lumbar_extension	lumbar_bending	lumbar_rotation	arm_flex_r	arm_add_r	arm_rot_r	elbow_flex_r	pro_sup_r	wrist_flex_r	wrist_dev_r	arm_flex_l	arm_add_l	arm_rot_l	elbow_flex_l	pro_sup_l	wrist_flex_l	wrist_dev_l
      0.00000000	     -4.78388416	      2.41749907	     -6.52565040	     -1.31809283	      0.86660895	     -1.00119139	     -6.51481623	     -0.79572417	    -17.88331398	    -16.10898359	     -0.28115480	     18.38298518	      1.42937797	     -9.06080121	     33.51104322	      2.60997720	     11.59740265	    -32.93435294	     -0.57481290	      3.72024437	     -3.47419148	    -12.14145191	    -10.45703240	     -0.06287918	      6.80575466	     14.62966078	    -13.00315503	     37.15947275	     22.87497741	     89.95437384	      0.00000000	      0.00000000	      1.60638195	      6.86476564	     -1.24763961	     19.66501075	     89.95437384	      0.00000000	      0.00000000
      0.01000000	     -4.51695964	      2.46336151	     -6.68990377	     -1.31020923	      0.86581573	     -1.00159968	     -7.35323225	     -1.01394390	    -17.49598756	    -16.12700928	     -0.28146941	     18.37728237	      1.48413979	     -9.04516098	     33.64683906	      2.44579710	     11.41586636	    -31.80844844	     -0.55516216	      3.26369022	     -3.46926202	    -11.81413035	    -10.76120314	     -0.21962873	      6.88617210	     15.11702878	    -13.03604983	     36.65742433	     23.34728936	     89.95437384	      0.00000000	      0.00000000	      1.29806692	      7.06397458	     -1.80691970	     18.46718030	     89.95437384	      0.00000000	      0.00000000
      0.02000000	     -4.54602280	      2.43238655	     -6.98296596	     -1.30190906	      0.86439019	     -1.00208860	     -7.73313933	     -1.24963926	    -17.35160858	    -16.45637242	     -0.28721788	     18.10559981	      1.43846799	     -8.91283278	     34.46879075	      2.57951491	     11.22292820	    -31.58660120	     -0.55129019	      3.10501050	     -3.38957128	    -11.60131496	    -10.74835843	     -0.29141376	      6.89031188	     15.58495004	    -13.08277806	     36.38592452	     23.87000430	     89.95437384	      0.00000000	      0.00000000	      0.43644924	      7.28144328	     -1.83554242	     18.14629857	     89.95437384	      0.00000000	      0.00000000
      0.03000000	     -4.62996418	      2.41347697	     -7.13325230	     -1.29357957	      0.86330474	     -1.00249342	     -8.20438552	     -1.34462634	    -16.88622895	    -16.50187777	     -0.28801210	     18.14679344	      1.63126142	     -8.90097436	     34.88224199	      2.59112881	     11.05362105	    -30.59356535	     -0.53395845	      2.49404601	     -3.53541675	    -11.37183746	    -10.62764830	     -0.33984153	      6.94134427	     15.93939119	    -13.09104553	     35.95669959	     24.28144651	     89.95437384	      0.00000000	      0.00000000	      0.10664715	      7.42085062	     -2.24771868	     16.82578855	     89.95437384	      0.00000000	      0.00000000
      0.04000000	     -4.63629504	      2.45438423	     -7.45038056	     -1.28505666	      0.86247396	     -1.00273455	     -8.60069628	     -1.61425051	    -16.44711189	    -16.82463117	     -0.29364521	     17.80296838	      1.77083627	     -8.80905005	     35.13223220	      2.55351765	     10.68826109	    -29.84270681	     -0.52085349	      2.05465649	     -3.70047427	    -11.12598899	    -10.60617716	     -0.51234927	      7.12555145	     16.24666705	    -13.05817485	     35.31301262	     24.67422097	     89.95437384	      0.00000000	      0.00000000	     -0.26520774	      7.55782035	     -2.82928380	     15.59822558	     89.95437384	      0.00000000	      0.00000000
